<svg width="430" height="430" viewBox="0 0 430 430" fill="none" xmlns="http://www.w3.org/2000/svg">
<path d="M68.2241 343.662C67.0035 343.636 65.8446 343.231 64.8746 342.491L32.7937 318.031C31.3174 316.899 30.4987 315.193 30.5361 313.329C30.5734 311.464 31.4739 309.787 33.0012 308.729L137.184 236.291C138.185 235.595 139.356 235.23 140.558 235.263C143.055 235.319 145.223 236.966 145.946 239.354L157.526 278.063C158.249 280.451 157.351 283.019 155.293 284.449L71.6114 342.639C70.6104 343.335 69.4314 343.682 68.2104 343.657L68.2241 343.662Z" fill="#2050F6"/>
<path d="M20.174 202.218C19.3294 201.336 18.7964 200.23 18.6335 199.021L13.2448 159.041C13.0015 157.196 13.6287 155.411 14.9736 154.119C16.3186 152.827 18.1413 152.278 19.9692 152.61L144.859 175.057C146.059 175.272 147.145 175.842 147.972 176.716C149.698 178.521 150.067 181.219 148.889 183.419L129.706 218.978C128.528 221.178 126.078 222.359 123.611 221.915L23.293 203.889C22.0929 203.674 21.0134 203.086 20.1678 202.205L20.174 202.218Z" fill="#212121"/>
<path d="M86.2096 68.2251C86.2357 67.0045 86.6409 65.8455 87.3805 64.8755L111.841 32.7947C112.973 31.3184 114.678 30.4997 116.543 30.537C118.408 30.5744 120.085 31.4748 121.143 33.0022L193.581 137.185C194.277 138.186 194.642 139.357 194.608 140.559C194.553 143.056 192.906 145.224 190.518 145.947L151.809 157.527C149.421 158.25 146.853 157.352 145.423 155.294L87.2331 71.6124C86.537 70.6113 86.1893 69.4323 86.2144 68.2114L86.2096 68.2251Z" fill="#212121"/>
<path d="M227.651 20.174C228.532 19.3294 229.638 18.7964 230.847 18.6335L270.828 13.2448C272.672 13.0015 274.457 13.6287 275.749 14.9736C277.042 16.3186 277.591 18.1413 277.259 19.9692L254.812 144.859C254.596 146.059 254.026 147.145 253.152 147.972C251.348 149.698 248.65 150.067 246.45 148.889L210.891 129.706C208.691 128.528 207.51 126.078 207.954 123.611L225.979 23.293C226.195 22.0929 226.783 21.0134 227.664 20.1678L227.651 20.174Z" fill="#212121"/>
<path d="M361.646 86.2106C362.866 86.2367 364.025 86.6418 364.995 87.3814L397.076 111.841C398.552 112.974 399.371 114.679 399.334 116.544C399.296 118.409 398.396 120.086 396.868 121.144L292.686 193.582C291.685 194.278 290.514 194.643 289.311 194.609C286.815 194.554 284.646 192.907 283.923 190.519L272.344 151.81C271.621 149.422 272.519 146.854 274.577 145.423L358.258 87.2341C359.259 86.538 360.438 86.1902 361.659 86.2153L361.646 86.2106Z" fill="#212121"/>
<path d="M409.701 227.653C410.545 228.534 411.078 229.64 411.241 230.849L416.63 270.83C416.873 272.674 416.246 274.459 414.901 275.751C413.556 277.044 411.733 277.593 409.905 277.261L285.016 254.814C283.815 254.598 282.73 254.028 281.903 253.154C280.177 251.35 279.808 248.652 280.986 246.452L300.169 210.893C301.347 208.693 303.797 207.512 306.264 207.956L406.582 225.981C407.782 226.197 408.861 226.785 409.707 227.666L409.701 227.653Z" fill="#212121"/>
<path d="M343.663 361.647C343.637 362.867 343.232 364.026 342.492 364.996L318.032 397.077C316.9 398.553 315.194 399.372 313.329 399.335C311.465 399.297 309.788 398.397 308.73 396.869L236.292 292.687C235.596 291.686 235.231 290.515 235.264 289.312C235.32 286.816 236.967 284.647 239.355 283.924L278.064 272.345C280.452 271.622 283.02 272.52 284.45 274.578L342.639 358.259C343.336 359.26 343.683 360.439 343.658 361.66L343.663 361.647Z" fill="#212121"/>
<path d="M202.219 409.701C201.337 410.545 200.231 411.078 199.022 411.241L159.042 416.63C157.197 416.873 155.412 416.246 154.12 414.901C152.828 413.556 152.279 411.733 152.611 409.905L175.058 285.016C175.273 283.815 175.843 282.73 176.717 281.903C178.522 280.177 181.22 279.808 183.42 280.986L218.979 300.169C221.179 301.347 222.36 303.797 221.916 306.264L203.89 406.582C203.675 407.782 203.087 408.861 202.206 409.707L202.219 409.701Z" fill="#212121"/>
</svg>