<svg width="271" height="331" viewBox="0 0 271 331" fill="none" xmlns="http://www.w3.org/2000/svg">
<path d="M40.1341 202.159C39.416 202.144 38.7343 201.906 38.1637 201.47L19.2921 187.082C18.4236 186.416 17.9421 185.412 17.964 184.315C17.986 183.219 18.5157 182.232 19.4141 181.61L80.6997 138.998C81.2887 138.588 81.9774 138.374 82.6849 138.393C84.1535 138.426 85.429 139.395 85.8542 140.8L92.6658 163.57C93.0911 164.975 92.5631 166.486 91.3525 167.327L42.1266 201.557C41.5378 201.967 40.8442 202.171 40.126 202.156L40.1341 202.159Z" fill="#2050F6"/>
<path d="M11.8671 118.956C11.3703 118.437 11.0568 117.786 10.9609 117.075L7.791 93.5568C7.64785 92.4717 8.01683 91.4217 8.808 90.6616C9.59917 89.9015 10.6714 89.5784 11.7466 89.7738L85.2131 102.978C85.9192 103.105 86.558 103.44 87.0443 103.954C88.0597 105.016 88.2767 106.603 87.5838 107.897L76.2992 128.815C75.6065 130.109 74.1651 130.804 72.7141 130.543L13.7019 119.939C12.9959 119.812 12.3609 119.466 11.8634 118.948L11.8671 118.956Z" fill="white"/>
<path d="M50.7132 40.1328C50.7286 39.4148 50.9669 38.7331 51.402 38.1625L65.7906 19.2909C66.4566 18.4224 67.46 17.9408 68.5569 17.9628C69.6539 17.9847 70.6405 18.5144 71.2627 19.4129L113.874 80.6985C114.284 81.2874 114.499 81.9762 114.479 82.6836C114.446 84.1523 113.478 85.4278 112.073 85.853L89.3021 92.6646C87.8972 93.0899 86.3868 92.5619 85.5453 91.3513L51.3153 42.1254C50.9058 41.5365 50.7012 40.843 50.716 40.1248L50.7132 40.1328Z" fill="white"/>
<path d="M133.918 11.8671C134.436 11.3703 135.087 11.0568 135.798 10.9609L159.316 7.791C160.401 7.64785 161.452 8.01683 162.212 8.808C162.972 9.59917 163.295 10.6714 163.099 11.7466L149.895 85.2131C149.768 85.9192 149.433 86.558 148.919 87.0443C147.857 88.0597 146.27 88.2767 144.976 87.5838L124.059 76.2992C122.764 75.6065 122.07 74.1651 122.331 72.7141L132.934 13.7019C133.061 12.9959 133.407 12.3609 133.925 11.8634L133.918 11.8671Z" fill="white"/>
<path d="M212.739 50.7132C213.457 50.7286 214.139 50.9669 214.71 51.402L233.581 65.7906C234.45 66.4566 234.931 67.46 234.909 68.5569C234.888 69.6539 234.358 70.6405 233.459 71.2627L172.174 113.874C171.585 114.284 170.896 114.499 170.189 114.479C168.72 114.446 167.444 113.478 167.019 112.073L160.208 89.3021C159.782 87.8972 160.31 86.3868 161.521 85.5453L210.747 51.3153C211.336 50.9058 212.029 50.7012 212.747 50.716L212.739 50.7132Z" fill="white"/>
<path d="M241.007 133.916C241.504 134.435 241.818 135.085 241.913 135.797L245.083 159.315C245.227 160.4 244.858 161.45 244.066 162.21C243.275 162.97 242.203 163.294 241.128 163.098L167.661 149.894C166.955 149.767 166.316 149.432 165.83 148.918C164.815 147.856 164.598 146.269 165.291 144.975L176.575 124.057C177.268 122.763 178.709 122.068 180.16 122.329L239.172 132.933C239.878 133.06 240.513 133.406 241.011 133.924L241.007 133.916Z" fill="white"/>
<path d="M202.16 212.739C202.145 213.457 201.907 214.139 201.472 214.709L187.083 233.581C186.417 234.449 185.414 234.931 184.317 234.909C183.22 234.887 182.233 234.357 181.611 233.459L138.999 172.173C138.59 171.584 138.375 170.896 138.395 170.188C138.427 168.72 139.396 167.444 140.801 167.019L163.571 160.207C164.976 159.782 166.487 160.31 167.328 161.521L201.558 210.746C201.968 211.335 202.172 212.029 202.158 212.747L202.16 212.739Z" fill="white"/>
<path d="M118.956 241.007C118.437 241.504 117.787 241.818 117.076 241.913L93.557 245.083C92.472 245.227 91.422 244.858 90.6619 244.066C89.9017 243.275 89.5786 242.203 89.774 241.128L102.978 167.661C103.105 166.955 103.44 166.316 103.955 165.83C105.016 164.815 106.603 164.598 107.897 165.291L128.815 176.575C130.109 177.268 130.804 178.709 130.543 180.16L119.939 239.172C119.812 239.878 119.467 240.513 118.948 241.011L118.956 241.007Z" fill="white"/>
<path d="M27.4417 280.178L39.4867 318.041H39.9491L52.0184 280.178H63.6983L46.519 330.013H32.9411L15.7374 280.178H27.4417Z" fill="white"/>
<path d="M73.3806 280.178V330.013H62.8442V280.178H73.3806Z" fill="white"/>
<path d="M102.231 294.51C102.037 292.547 101.201 291.023 99.725 289.936C98.2488 288.849 96.2453 288.305 93.7147 288.305C91.9951 288.305 90.5432 288.549 89.359 289.035C88.1748 289.506 87.2664 290.163 86.6337 291.006C86.0173 291.85 85.709 292.807 85.709 293.878C85.6766 294.77 85.8631 295.549 86.2687 296.214C86.6905 296.879 87.2664 297.455 87.9964 297.941C88.7263 298.412 89.5699 298.825 90.527 299.182C91.4841 299.523 92.5061 299.815 93.593 300.058L98.0703 301.129C100.244 301.616 102.239 302.265 104.056 303.076C105.873 303.887 107.447 304.884 108.777 306.069C110.107 307.253 111.137 308.648 111.867 310.254C112.614 311.86 112.995 313.701 113.011 315.778C112.995 318.827 112.216 321.472 110.675 323.71C109.15 325.933 106.944 327.66 104.056 328.893C101.185 330.11 97.7216 330.718 93.666 330.718C89.6429 330.718 86.1389 330.102 83.154 328.869C80.1854 327.636 77.8656 325.811 76.1947 323.394C74.54 320.961 73.6721 317.951 73.591 314.366H83.7867C83.9002 316.037 84.3788 317.432 85.2224 318.552C86.0821 319.655 87.2258 320.49 88.6534 321.058C90.0971 321.609 91.7275 321.885 93.5443 321.885C95.3288 321.885 96.878 321.626 98.192 321.107C99.5222 320.587 100.552 319.866 101.282 318.941C102.012 318.016 102.377 316.954 102.377 315.753C102.377 314.634 102.045 313.693 101.38 312.931C100.731 312.168 99.7737 311.519 98.5083 310.984C97.2592 310.449 95.7262 309.962 93.9093 309.524L88.483 308.161C84.2815 307.139 80.964 305.541 78.5307 303.368C76.0974 301.194 74.8888 298.266 74.905 294.583C74.8888 291.566 75.6918 288.93 77.314 286.675C78.9525 284.42 81.1993 282.66 84.0544 281.395C86.9095 280.129 90.1539 279.497 93.7877 279.497C97.4863 279.497 100.715 280.129 103.472 281.395C106.246 282.66 108.404 284.42 109.945 286.675C111.486 288.93 112.281 291.542 112.33 294.51H102.231Z" fill="white"/>
<path d="M111.348 288.865V280.178H152.276V288.865H137.019V330.013H126.605V288.865H111.348Z" fill="white"/>
<path d="M152.164 330.013V280.178H171.826C175.589 280.178 178.801 280.851 181.462 282.198C184.138 283.528 186.174 285.418 187.569 287.867C188.981 290.301 189.686 293.164 189.686 296.457C189.686 299.766 188.973 302.613 187.545 304.998C186.118 307.366 184.049 309.183 181.34 310.449C178.647 311.714 175.387 312.347 171.558 312.347H158.394V303.879H169.855C171.866 303.879 173.537 303.603 174.867 303.051C176.198 302.5 177.187 301.672 177.836 300.569C178.501 299.466 178.834 298.095 178.834 296.457C178.834 294.802 178.501 293.407 177.836 292.272C177.187 291.136 176.19 290.276 174.843 289.692C173.513 289.092 171.834 288.792 169.806 288.792H162.701V330.013H152.164ZM179.077 307.334L191.463 330.013H179.831L167.713 307.334H179.077Z" fill="white"/>
<path d="M198.87 330.013H187.579L204.783 280.178H218.361L235.54 330.013H224.249L211.766 291.566H211.377L198.87 330.013ZM198.164 310.424H224.833V318.649H198.164V310.424Z" fill="white"/>
<path d="M234.686 330.013V280.178H245.222V321.326H266.587V330.013H234.686Z" fill="white"/>
</svg>
